<svg width="177px" height="58px" viewBox="0 0 177 58" version="1.1" xmlns="http://www.w3.org/2000/svg" xmlns:xlink="http://www.w3.org/1999/xlink">
    <defs>
        <path d="M0,56.9486405 C8.57858458,52.7432024 13.9534626,49.1352636 16.124634,46.1248241 C18.2958054,43.1143846 21.3479213,27.7394432 25.2809817,0 L39.7166086,0 L43.3689961,24.5317221 L44.6734202,34.1691843 L45.0212667,34.1691843 L49.9780783,24.5317221 L63.1962427,0 L77.6318696,0 L66.3268606,56.9486405 L53.2826194,56.9486405 L57.2828534,38.0241692 C57.5727268,36.5639403 57.9350633,34.9577127 58.3698735,33.2054381 C58.8046837,31.4531634 59.2829677,29.7009151 59.80474,27.9486405 C60.3265123,26.1963659 60.8482767,24.4733217 61.3700489,22.7794562 C61.8918212,21.0855907 62.3845987,19.5085672 62.8483963,18.0483384 L62.5875114,18.0483384 L55.5436212,31.3655589 L43.5429193,52.0422961 L38.3252229,52.0422961 L34.6728353,31.3655589 L32.9336032,18.0483384 L32.6727184,18.0483384 C32.556769,19.5085672 32.4263279,21.1001928 32.2813911,22.8232628 C32.1364544,24.5463329 31.9770264,26.2839792 31.8031023,28.0362538 C31.6291782,29.7885284 31.4407633,31.5261747 31.2378518,33.2492447 C31.0349404,34.9723148 30.7885516,36.5639403 30.4986782,38.0241692 L27.4829631,52.939532 C27.0114073,55.2717899 24.9615852,56.9486405 22.5821332,56.9486405 L0,56.9486405 Z M75.5641158,56.9486405 L84.0863533,13.141994 L95.3913624,13.141994 L95.0435159,21.7280967 L95.3913624,21.7280967 C97.0726285,18.9244573 99.0872189,16.6173303 101.435194,14.8066465 C103.783169,12.9959627 106.17459,12.0906344 108.609527,12.0906344 C109.826995,12.0906344 110.798057,12.1636448 111.522741,12.3096677 C112.247424,12.4556906 112.841656,12.6747216 113.305454,12.9667674 L108.78345,25.0574018 C108.145728,24.7069469 107.406562,24.5025179 106.565929,24.4441088 C105.725296,24.3856996 104.957143,24.3564955 104.261446,24.3564955 C102.406256,24.3564955 100.681535,24.9697824 99.0872307,26.1963746 C97.4929266,27.4229669 95.855166,29.4964607 94.1738998,32.4169184 L89.477973,56.9486405 L75.5641158,56.9486405 Z M110.19416,58 C108.107071,58 106.42583,57.3283048 105.150387,55.9848943 C103.874944,54.6414837 103.237232,52.8600312 103.237232,50.6404834 C103.237232,49.4723003 103.469127,48.3041347 103.932925,47.1359517 C104.396722,45.9677686 105.048928,44.9164196 105.889561,43.9818731 C106.730194,43.0473266 107.730242,42.288019 108.889736,41.7039275 C110.04923,41.119836 111.353641,40.8277946 112.803009,40.8277946 C114.890098,40.8277946 116.571339,41.5286939 117.846782,42.9305136 C119.122225,44.3323333 119.759937,46.0845816 119.759937,48.1873112 C119.759937,49.4139034 119.528042,50.6112731 119.064244,51.7794562 C118.600447,52.9476393 117.948241,53.9989883 117.107608,54.9335347 C116.266975,55.8680812 115.266927,56.6127868 114.107433,57.1676737 C112.947939,57.7225607 111.643528,58 110.19416,58 Z M127.953653,56.9486405 C133.724404,31.007703 137.081881,15.6590368 138.026085,10.902642 C138.970288,6.14624722 132.651975,2.51203321 119.071146,0 L157.346677,0 C160.187437,0 162.810752,0.248235181 165.216702,0.744712991 C167.622652,1.2411908 169.695216,2.01510048 171.434457,3.06646526 C173.173698,4.11783003 174.536083,5.47582249 175.521653,7.14048338 C176.507222,8.80514427 177,10.8056278 177,13.141994 C177,16.2376791 175.956471,19.0704806 173.869382,21.6404834 C171.782293,24.2104862 168.767654,26.1087552 164.825375,27.3353474 L164.651452,27.6858006 C171.028668,29.2628478 174.217229,32.7089362 174.217229,38.0241692 C174.217229,41.4703093 173.536036,44.3907232 172.173631,46.7854985 C170.811225,49.1802738 168.999543,51.122349 166.73853,52.6117825 C164.477517,54.1012159 161.839708,55.1963711 158.825024,55.897281 C155.81034,56.5981908 152.650766,56.9486405 149.346209,56.9486405 L127.953653,56.9486405 Z M148.650516,22.7794562 L153.346443,22.7794562 C156.76695,22.7794562 159.187357,22.1369651 160.607737,20.8519637 C162.028117,19.5669624 162.738296,17.814714 162.738296,15.5951662 C162.738296,12.3242535 160.187448,10.6888218 155.085675,10.6888218 L151.085441,10.6888218 L148.650516,22.7794562 Z M143.954589,46.2598187 L150.389748,46.2598187 C153.86823,46.2598187 156.477052,45.5735215 158.216293,44.2009063 C159.955534,42.8282912 160.825141,40.9446243 160.825141,38.5498489 C160.825141,34.3443898 158.274293,32.2416918 153.172519,32.2416918 L146.73736,32.2416918 L143.954589,46.2598187 Z" id="path-1"></path>
    </defs>
    <g id="Symbols" stroke="none" stroke-width="1" fill="none" fill-rule="evenodd">
        <g id="Logo">
            <g>
                <mask id="mask-2" fill="white">
                    <use xlink:href="#path-1"></use>
                </mask>
                <use id="Mr.B" fill="#FFFFFF" xlink:href="#path-1"></use>
                <path d="M-4.03418883,56.3822276 C20.7393488,55.3257968 33.1261176,45.9073091 33.1261176,28.1267643 C33.1261176,10.3462195 32.4594509,23.2471312 31.1261176,66.8294994 L-4.03418883,56.3822276 Z" id="Highlight" fill="#FFE04A" mask="url(#mask-2)"></path>
            </g>
        </g>
    </g>
</svg>
